<?xml version="1.0" encoding="UTF-8"?>
<svg width="32" height="32" viewBox="0 0 32 32" fill="none" xmlns="http://www.w3.org/2000/svg">
  <!-- Background Circle -->
  <circle cx="16" cy="16" r="16" fill="url(#paint0_linear)"/>
  
  <!-- WiFi Signal Waves -->
  <path d="M16 6C20.4183 6 24 9.58172 24 14C24 18.4183 20.4183 22 16 22C11.5817 22 8 18.4183 8 14C8 9.58172 11.5817 6 16 6Z" fill="white" fill-opacity="0.9"/>
  <path d="M16 10C18.2091 10 20 11.7909 20 14C20 16.2091 18.2091 18 16 18C13.7909 18 12 16.2091 12 14C12 11.7909 13.7909 10 16 10Z" fill="white"/>
  <circle cx="16" cy="14" r="2" fill="url(#paint1_linear)"/>
  
  <defs>
    <!-- Background Gradient -->
    <linearGradient id="paint0_linear" x1="0" y1="0" x2="32" y2="32" gradientUnits="userSpaceOnUse">
      <stop stop-color="#3B82F6"/>
      <stop offset="1" stop-color="#2563EB"/>
    </linearGradient>
    
    <!-- Center Dot Gradient -->
    <linearGradient id="paint1_linear" x1="14" y1="12" x2="18" y2="16" gradientUnits="userSpaceOnUse">
      <stop stop-color="#3B82F6"/>
      <stop offset="1" stop-color="#2563EB"/>
    </linearGradient>
  </defs>
</svg>
