<?xml version="1.0" encoding="UTF-8"?>
<svg width="24" height="24" viewBox="0 0 24 24" fill="none" xmlns="http://www.w3.org/2000/svg">
  <path d="M12 3C7.03 3 2.8 5.12 0 8.5C2.8 11.88 7.03 14 12 14C16.97 14 21.2 11.88 24 8.5C21.2 5.12 16.97 3 12 3ZM12 12C9.79 12 8 10.21 8 8C8 5.79 9.79 4 12 4C14.21 4 16 5.79 16 8C16 10.21 14.21 12 12 12ZM12 6C10.9 6 10 6.9 10 8C10 9.1 10.9 10 12 10C13.1 10 14 9.1 14 8C14 6.9 13.1 6 12 6Z" fill="currentColor"/>
  <path d="M2 19.5C4.8 22.88 9.03 25 14 25C18.97 25 23.2 22.88 26 19.5" stroke="currentColor" stroke-width="2"/>
</svg>
